<?xml version="1.0" encoding="UTF-8"?>
<svg id="Camada_2" data-name="Camada 2" xmlns="http://www.w3.org/2000/svg" viewBox="0 0 208.65 88.25">
  <defs>
    <style>
      .cls-1 {
        fill: #ffdc50;
      }
    </style>
  </defs>
  <g id="Camada_1-2" data-name="Camada 1">
    <g>
      <polygon class="cls-1" points="0 88.25 0 47.69 6.25 47.69 6.25 81.79 14.71 81.79 14.71 88.25 0 88.25"/>
      <path class="cls-1" d="m32.77,73.7l1.78,14.55h-6.3l-1.03-8.43h-4.6l-1.05,8.43h-6.29l1.78-14.49,3.81-26.08h8.11l3.79,26.02Zm-6.36-.37l-1.5-12.28-1.5,12.28h3Z"/>
      <path class="cls-1" d="m35.48,47.69h8.65c5.03.01,7.54,2.94,7.54,8.77v5.98c0,2.75-.84,4.6-2.51,5.53,1.68.93,2.51,2.77,2.51,5.53v6c0,5.82-2.62,8.74-7.86,8.75h-8.33v-40.56Zm6.25,6.46v10.58h1.2c.68,0,1.11-.04,1.31-.12.79-.34,1.18-1.06,1.18-2.17v-5.98c0-1.54-.61-2.31-1.84-2.31h-1.86Zm0,17.06v10.58h1.86c1.23,0,1.84-.76,1.84-2.29v-6c0-1.11-.39-1.82-1.18-2.15-.21-.09-.65-.14-1.31-.14h-1.2Z"/>
      <polygon class="cls-1" points="52.64 47.68 67.35 47.68 67.35 54.15 58.89 54.15 58.89 64.72 66.17 64.72 66.17 71.21 58.89 71.21 58.89 81.79 67.35 81.79 67.35 88.25 52.64 88.25 52.64 47.68"/>
      <polygon class="cls-1" points="68.49 88.25 68.49 47.69 74.74 47.69 74.74 81.79 83.2 81.79 83.2 88.25 68.49 88.25"/>
      <polygon class="cls-1" points="84.35 88.25 84.35 47.69 90.6 47.69 90.6 81.79 99.06 81.79 99.06 88.25 84.35 88.25"/>
      <path class="cls-1" d="m117.36,73.7l1.78,14.55h-6.3l-1.03-8.43h-4.6l-1.05,8.43h-6.29l1.78-14.49,3.81-26.08h8.11l3.79,26.02Zm-6.36-.37l-1.5-12.28-1.5,12.28h3Z"/>
      <polygon class="cls-1" points="131.55 74.57 137.33 47.68 143.5 47.68 143.5 88.25 137.48 88.25 137.48 69.59 133.8 88.25 129.41 88.25 125.6 69.47 125.6 88.25 119.53 88.25 119.53 47.68 125.7 47.68 131.55 74.57"/>
      <path class="cls-1" d="m161.91,73.7l1.78,14.55h-6.3l-1.03-8.43h-4.6l-1.05,8.43h-6.29l1.78-14.49,3.81-26.08h8.11l3.79,26.02Zm-6.36-.37l-1.5-12.28-1.5,12.28h3Z"/>
      <polygon class="cls-1" points="164.62 47.68 179.33 47.68 179.33 54.15 170.87 54.15 170.87 64.72 178.15 64.72 178.15 71.21 170.87 71.21 170.87 88.25 164.62 88.25 164.62 47.68"/>
      <rect class="cls-1" x="180.72" y="47.68" width="6.25" height="40.56"/>
      <path class="cls-1" d="m205.2,73.7l1.78,14.55h-6.3l-1.03-8.43h-4.6l-1.05,8.43h-6.29l1.78-14.49,3.81-26.08h8.11l3.79,26.02Zm-6.36-.37l-1.5-12.28-1.5,12.28h3Z"/>
      <path class="cls-1" d="m208.65,50.15c0,1.42-1.12,2.54-2.57,2.54s-2.59-1.12-2.59-2.54,1.15-2.51,2.59-2.51,2.57,1.12,2.57,2.51m-4.51,0c0,1.12.83,2.01,1.96,2.01s1.91-.89,1.91-1.99-.81-2.02-1.93-2.02-1.94.9-1.94,2m1.55,1.32h-.58v-2.51c.23-.05.55-.08.96-.08.48,0,.69.08.87.18.14.11.24.3.24.55,0,.28-.21.49-.52.58v.03c.24.09.38.28.46.61.08.38.12.53.18.63h-.63c-.08-.09-.12-.32-.2-.61-.05-.28-.2-.4-.52-.4h-.27v1.01Zm.02-1.42h.28c.32,0,.58-.11.58-.37,0-.23-.17-.38-.54-.38-.15,0-.26.02-.32.03v.72Z"/>
      <path class="cls-1" d="m2.85,7.94l-.02,17.9-2.79-.02v6.58s16.35,0,16.35,0v-6.53h-3.28l-.03-4.52s4.53.12,5.87-.06c6.35-.83,8.46-5.78,8.49-10.21.04-4.86-2.32-8.77-8.64-9.89-1.83-.32-4.46-.38-7.49-.38C5.92.79,0,.84,0,.84v7.1s2.85,0,2.85,0Zm10.27-.02s2.14-.17,3.13.15c1.09.35,1.38,1.38,1.38,3.3s-1.18,3.05-2.04,3.19c-1.03.16-2.48.06-2.48.06v-6.7Z"/>
      <polygon class="cls-1" points="30 7.88 30 .8 46.17 .8 46.17 7.9 42.91 7.9 42.9 25.74 47.64 25.74 47.64 20.32 55.15 20.31 55.13 32.4 30 32.4 30 25.74 32.85 25.75 32.84 7.87 30 7.88"/>
      <path class="cls-1" d="m69.51,16.35h4.33s-1.68-9.11-1.68-9.11l-2.66,9.11Zm-1.37-15.55h10.1l7.18,24.89h2.16v6.7l-14.5-.03v-6.7s2.78.04,2.78.04l-.48-2.79h-7.33l-.99,2.79h3.2v6.67s-11.88,0-11.88,0v-6.67s2.27.02,2.27.02L68.14.8Z"/>
      <polygon class="cls-1" points="86.82 7.89 86.82 .8 102.54 .8 102.53 7.89 100.12 7.89 103.5 13.51 106.66 7.92 104.53 7.92 104.53 .8 115.9 .8 115.9 7.89 113.96 7.89 106.56 20.08 106.56 25.73 110.35 25.73 110.35 32.41 93.41 32.41 93.41 25.72 96.24 25.72 96.24 19.65 88.62 7.89 86.82 7.89"/>
      <polygon class="cls-1" points="179.57 7.87 179.57 .78 195.32 .78 195.32 7.87 193.08 7.85 196.22 13.21 199.36 7.85 197.3 7.88 197.3 .78 208.65 .78 208.65 7.87 206.54 7.85 199.48 19.38 199.48 25.72 202.73 25.72 202.73 32.4 186.2 32.4 186.2 25.71 189.02 25.72 189.01 19.77 181.42 7.87 179.57 7.87"/>
      <path class="cls-1" d="m131.42,13.08s2.26.05,2.89-.13c1.37-.38,2.06-1.43,2.06-2.65,0-.88-.23-1.68-1.5-2.22-.59-.25-1.36-.23-2.04-.25-.75-.02-1.44-.02-1.44-.02l.02,5.27Zm-.02,12.67s1.71.11,2.89-.19c1.75-.45,2.25-1.63,2.27-3.08.02-1.23-.46-2.29-1.8-2.72-1.13-.36-3.36-.24-3.36-.24v6.24ZM119.33.83s7.41-.04,13.31,0c2.75.06,4.55.18,6.35.57,3.85.84,6.82,3.61,6.76,7.14-.06,3.99-2.68,7.36-7.24,7.66,5.03.12,8.16,3.94,8.06,8.05-.1,4.45-3.65,7.9-8.29,8.06-4.55.16-18.91.08-18.91.08l-.02-6.64h2.67s0-17.83,0-17.83h-2.7s0-7.09,0-7.09Z"/>
      <path class="cls-1" d="m163.68,26.11c3.03.02,3.9-3.81,3.9-9.56s-.83-10.09-4.12-10.09c-2.92,0-4.12,4.34-4.12,10.09s1.3,9.54,4.34,9.56m-15.34-9.74C148.34,7.33,154.3-.02,163.46,0c9.58.02,15.11,7.33,15.11,16.37s-5.96,16.32-15.11,16.37c-8.91.05-15.11-7.33-15.11-16.37"/>
      <rect class="cls-1" x=".15" y="39.18" width="208.5" height="1.61"/>
    </g>
  </g>
</svg>