<svg version="1.1" preserveAspectRatio="none" xmlns="http://www.w3.org/2000/svg" width="500" height="500" viewBox="0 0 500 500"><rect width="100%" height="100%" fill="#414141" fill-opacity="1"/><svg viewBox="37.1103 62.3332 361.2007 230.1398" width="333" height="212.17166356543606" x="83.5px" y="143.9142px" xmlns="http://www.w3.org/2000/svg" xmlns:xlink="http://www.w3.org/1999/xlink" preserveAspectRatio="none"><defs></defs><style>.companyName {fill:#E9E9E9;fill-opacity:1;}.icon3-str {stroke:#888888;stroke-opacity:1;}.shape {fill:#282828;fill-opacity:1;}.shapeStroke-str {stroke:#E9E9E9;stroke-opacity:1;}</style><g opacity="1" transform="rotate(0 102.6349 62.3332)">
<svg width="230.1514" height="230.1398" x="102.6349" y="62.3332" version="1.1" preserveAspectRatio="none" viewBox="0 0 230.1514 230.1398">
  <defs><rect x="0" y="0" width="230.1514" height="230.1398" rx="0%" ry="0%" id="id-aPBVVfuK1699787639564"></rect></defs><use class="shape shapeStroke-str" style="stroke-width:0;" xlink:href="#id-aPBVVfuK1699787639564"></use>
</svg>
</g><g opacity="1" transform="rotate(0 37.1103 163.4031)">
<svg width="361.2007" height="28" x="37.1103" y="163.4031" version="1.1" preserveAspectRatio="none" viewBox="0.56 -26.6 345.72 26.8">
  <g transform="matrix(1 0 0 1 0 0)" class="companyName"><path id="id-D6z1nYkh14" d="M12.64 0.20L11.04 0.20L3.60-24.28L0.56-25.76L0.56-26.40L11.32-26.40L11.32-25.76L7.92-24.28L12.80-7.40L13.04-7.40L19.96-26.60L21.64-26.60L28.68-7.40L28.92-7.40L33.76-24.24L30.36-25.76L30.36-26.40L39.24-26.40L39.24-25.76L36.56-24.32L29.04 0.20L27.40 0.20L20.20-18.96L19.92-18.96L12.64 0.20Z M53.76 0L44.36 0L44.36-0.64L47.00-1.96L47.00-20.44L44.36-21.76L44.36-22.40L53.76-22.40L53.76-21.76L51.00-20.44L51.00-1.96L53.76-0.64L53.76 0Z M79.08 0L60.72 0L60.72-0.64L63.60-1.96L63.60-20.44L60.72-21.76L60.72-22.40L70.80-22.40L70.80-21.76L67.56-20.44L67.56-2L75.92-2L78.44-7.88L79.08-7.88L79.08 0Z M104.48 0L86.12 0L86.12-0.64L89.00-1.96L89.00-20.44L86.12-21.76L86.12-22.40L96.20-22.40L96.20-21.76L92.96-20.44L92.96-2L101.32-2L103.84-7.88L104.48-7.88L104.48 0Z M121.08 0L111.68 0L111.68-0.64L114.32-1.96L114.32-20.44L111.68-21.76L111.68-22.40L121.08-22.40L121.08-21.76L118.32-20.44L118.32-1.96L121.08-0.64L121.08 0Z M134.28 0L126.84 0L126.84-0.64L128.88-1.72L137.76-22.60L139.84-22.60L148.64-1.80L151-0.64L151 0L141.72 0L141.72-0.64L144.52-1.80L142.04-7.72L133.80-7.72L131.36-1.76L134.28-0.64L134.28 0ZM137.88-17.68L134.64-9.72L141.20-9.72L137.88-17.68Z M165.12 0L156.44 0L156.44-0.64L159.28-1.96L159.28-20.48L156.44-21.76L156.44-22.40L162.40-22.40L175.92-6.36L175.92-20.48L172.40-21.76L172.40-22.40L181.00-22.40L181.00-21.76L178.16-20.48L178.16 0.16L176.32 0.16L161.56-17.24L161.56-2.08L165.12-0.64L165.12 0Z M220.04 0L200.80 0L200.80-1.08L214.44-24.20L204.48-24.20L201.92-18.92L201.28-18.92L201.28-26.40L219.60-26.40L219.60-25.32L205.92-2.20L216.76-2.20L219.40-7.88L220.04-7.88L220.04 0Z M246.60 0L228.00 0L228.00-0.64L230.88-1.96L230.88-20.44L228.00-21.76L228.00-22.40L245.60-22.40L245.60-16.64L244.96-16.64L242.88-20.40L234.84-20.40L234.84-12.60L240.68-12.60L242.04-15.36L242.68-15.36L242.68-7.88L242.04-7.88L240.68-10.60L234.84-10.60L234.84-2L243.76-2L245.96-6.52L246.60-6.52L246.60 0Z M262.16 0L253.48 0L253.48-0.64L256.32-1.96L256.32-20.48L253.48-21.76L253.48-22.40L259.44-22.40L272.96-6.36L272.96-20.48L269.44-21.76L269.44-22.40L278.04-22.40L278.04-21.76L275.20-20.48L275.20 0.16L273.36 0.16L258.60-17.24L258.60-2.08L262.16-0.64L262.16 0Z M300.24 0L289.04 0L289.04-0.64L292.64-1.96L292.64-20.40L286.76-20.40L284.64-15.52L284.00-15.52L284.00-22.40L305.28-22.40L305.28-15.52L304.64-15.52L302.48-20.40L296.60-20.40L296.60-1.96L300.24-0.64L300.24 0Z M320.96 0L311.56 0L311.56-0.64L314.20-1.96L314.20-20.44L311.56-21.76L311.56-22.40L320.96-22.40L320.96-21.76L318.20-20.44L318.20-1.96L320.96-0.64L320.96 0Z M346.28 0L327.92 0L327.92-0.64L330.80-1.96L330.80-20.44L327.92-21.76L327.92-22.40L338-22.40L338-21.76L334.76-20.44L334.76-2L343.12-2L345.64-7.88L346.28-7.88L346.28 0Z"/></g>
</svg>
</g></svg></svg>